<svg xmlns="http://www.w3.org/2000/svg" width="16" height="16" fill="currentColor" class="bi bi-fullscreen" viewBox="0 0 16 16">
  <path d="M1.5 1a.5.5 0 0 0-.5.5v4a.5.5 0 0 1-1 0v-4A1.5 1.5 0 0 1 1.5 0h4a.5.5 0 0 1 0 1h-4zM10 .5a.5.5 0 0 1 .5-.5h4A1.5 1.5 0 0 1 16 1.5v4a.5.5 0 0 1-1 0v-4a.5.5 0 0 0-.5-.5h-4a.5.5 0 0 1-.5-.5zm-.5 15a.5.5 0 0 1-.5.5h-4A1.5 1.5 0 0 1 4 14.5v-4a.5.5 0 0 1 1 0v4a.5.5 0 0 0 .5.5h4a.5.5 0 0 1 .5.5zM15 10a.5.5 0 0 0-.5.5v4a.5.5 0 0 1-1 0v-4A1.5 1.5 0 0 1 14.5 10h-4a.5.5 0 0 0 0 1h4a.5.5 0 0 1 .5.5v4a.5.5 0 0 1-1 0v-4A1.5 1.5 0 0 1 14.5 10h-4a.5.5 0 0 0 0 1h4A1.5 1.5 0 0 1 16 11.5v4a.5.5 0 0 1-1 0v-4a1.5 1.5 0 0 1-1.5-1.5h-4a.5.5 0 0 0 0 1h4a.5.5 0 0 1 .5.5v4a.5.5 0 0 1-1 0v-4A1.5 1.5 0 0 1 14.5 10h-4a.5.5 0 0 0 0 1h4a1.5 1.5 0 0 1 1.5 1.5v4a.5.5 0 0 1-1 0v-4a.5.5 0 0 0-.5-.5h-4a.5.5 0 0 1-.5-.5v-4a.5.5 0 0 1 1 0v4a.5.5 0 0 0 .5.5h4a.5.5 0 0 1 .5.5v4a.5.5 0 0 1-1 0v-4a1.5 1.5 0 0 1-1.5-1.5h-4a.5.5 0 0 0 0 1h4a1.5 1.5 0 0 1 1.5 1.5v4a.5.5 0 0 1-1 0v-4a.5.5 0 0 0-.5-.5h-4a.5.5 0 0 1-.5-.5v-4a.5.5 0 0 1 1 0v4a.5.5 0 0 0 .5.5h4a.5.5 0 0 1 .5.5v4a.5.5 0 0 1-1 0v-4a1.5 1.5 0 0 1-1.5-1.5h-4a.5.5 0 0 0 0 1h4a1.5 1.5 0 0 1 1.5 1.5v4a.5.5 0 0 1-1 0v-4a.5.5 0 0 0-.5-.5h-4a.5.5 0 0 1-.5-.5v-4a.5.5 0 0 1 1 0v4a.5.5 0 0 0 .5.5h4a.5.5 0 0 1 .5.5v4a.5.5 0 0 1-1 0v-4a1.5 1.5 0 0 1-1.5-1.5h-4a.5.5 0 0 0 0 1h4a1.5 1.5 0 0 1 1.5 1.5v4a.5.5 0 0 1-1 0v-4a.5.5 0 0 0-.5-.5h-4a.5.5 0 0 1-.5-.5v-4a.5.5 0 0 1 1 0v4a.5.5 0 0 0 .5.5h4a.5.5 0 0 1 .5.5v4a.5.5 0 0 1-1 0v-4a1.5 1.5 0 0 1-1.5-1.5h-4a.5.5 0 0 0 0 1h4a1.5 1.5 0 0 1 1.5 1.5v4a.5.5 0 0 1-1 0v-4z"/>
</svg>