<?xml version="1.0" encoding="UTF-8" standalone="no"?>
<svg
   width="1001"
   height="1001"
   viewBox="0 0 1001 1001"
   version="1.1"
   id="svg19"
   sodipodi:docname="minimalist-letter-m-logo-made-of-only-two-books--s.svg"
   inkscape:version="1.4.2 (ebf0e940, 2025-05-08)"
   xmlns:inkscape="http://www.inkscape.org/namespaces/inkscape"
   xmlns:sodipodi="http://sodipodi.sourceforge.net/DTD/sodipodi-0.dtd"
   xmlns="http://www.w3.org/2000/svg"
   xmlns:svg="http://www.w3.org/2000/svg">
  <defs
     id="defs19" />
  <sodipodi:namedview
     id="namedview19"
     pagecolor="#ffffff"
     bordercolor="#000000"
     borderopacity="0.25"
     inkscape:showpageshadow="2"
     inkscape:pageopacity="0.0"
     inkscape:pagecheckerboard="0"
     inkscape:deskcolor="#d1d1d1"
     inkscape:zoom="0.64"
     inkscape:cx="594.53125"
     inkscape:cy="514.84375"
     inkscape:window-width="1512"
     inkscape:window-height="920"
     inkscape:window-x="0"
     inkscape:window-y="34"
     inkscape:window-maximized="1"
     inkscape:current-layer="svg19" />
  <path
     fill="#23434a"
     d="m 505.00302,212.75156 c 72.8207,-46.55023 142.97733,-105.86524 215.63344,-153.445937 22.49533,-13.812186 49.50449,-48.504731 77.50996,-32.539678 21.11129,12.034264 13.7753,60.44466 14.52037,84.094705 32.33082,5.30959 82.04109,-7.64146 112.05871,8.118 17.77145,9.32986 12.753,65.02856 12.68585,85.17113 l -0.039,127.74702 -0.0346,314.20919 c 0.0866,54.08525 0.66928,108.23097 0.48301,162.32105 -0.0199,5.61921 -0.52633,7.85432 -3.26837,12.32695 -7.69555,5.10883 -5.61625,13.35018 -25.73991,21.16582 -7.43563,2.23025 -14.3428,4.34199 -21.67447,6.96655 -27.29938,10.12088 -55.03193,18.92343 -82.46126,28.61372 -4.90366,1.73199 -10.26434,3.2027 -15.01639,5.33621 -8.65721,2.72857 -17.26462,5.65067 -25.81571,8.76869 -7.36849,2.61729 -16.24447,5.49825 -23.2491,8.80013 l -4.75637,1.85534 c -2.98899,1.04498 -7.59158,2.48183 -10.29032,3.85336 -20.71064,5.56116 -42.93306,13.82189 -63.04372,20.61911 -36.42877,12.31003 -70.98183,21.37142 -103.37116,44.3103 -12.3328,8.73239 -33.52859,13.35985 -47.94282,13.817 -14.72618,0.46687 -30.58078,-1.64972 -44.71996,-6.70774 -15.98674,-5.16202 -28.57728,-14.9152 -43.04353,-23.57021 -8.14172,-4.75081 -20.69112,-8.86785 -29.64507,-11.9762 L 177.23304,869.10151 c -17.45521,-6.12478 -34.93858,-12.14313 -52.45447,-18.05261 -8.12224,-2.75275 -16.60402,-5.745 -24.67644,-8.53161 -23.550137,-8.13494 -27.977302,-20.5272 -27.819189,-46.11724 0.285902,-45.77617 0.34005,-91.57652 0.366043,-137.34544 l -0.02382,-296.86047 -0.06065,-143.80158 c -0.08013,-19.84021 -1.403521,-58.57967 0.240419,-76.79433 0.688762,-7.99462 3.937662,-15.44257 9.146723,-20.97954 10.758173,-11.24568 37.888604,-8.72756 52.564934,-8.71788 l 63.64368,0.15961 c 1.14578,-29.869153 -10.25135,-77.461947 25.11611,-87.033722 6.32018,-1.775507 12.99126,-1.083688 18.90857,1.966603 9.38713,4.869342 22.31774,14.554808 31.41247,21.013399 17.14768,12.206009 34.23469,24.520875 51.25889,36.944581 56.50043,41.006009 122.26888,90.212219 180.14686,127.800259 z M 101.2586,743.4759 c 0.25774,19.175 -0.49383,46.29622 0.84471,64.44073 54.44713,20.00714 109.178,39.04667 164.16664,57.11621 27.39467,9.09524 54.77417,18.5122 82.19918,27.54456 21.18497,6.97624 43.31425,16.29402 64.5057,22.5712 2.07062,-16.62301 1.25192,-51.00836 1.24109,-69.35364 0.14735,-42.96051 -0.0781,-85.92101 -0.67577,-128.8791 -0.46134,-42.26145 0.57614,-87.03375 0.55447,-129.77414 l -1.14144,-185.04706 c -31.89113,-22.31477 -63.59385,-44.96095 -95.10379,-67.93853 -10.66505,-7.88337 -66.91856,-50.76404 -73.91236,-53.30636 l 0.71692,367.02931 c -0.0281,21.77054 1.14796,129.12828 -2.71822,144.46439 -8.08542,2.75035 -123.59443,-42.00503 -140.67713,-48.86757 z m 340.60541,-237.33505 0.14735,200.39529 c 0.006,41.19952 -0.57614,84.34385 0.0802,125.38856 42.59085,34.20393 81.65988,29.33942 124.3092,-0.7547 1.48801,-107.75928 -1.60061,-217.99073 0.67144,-325.27103 -45.03835,30.32152 -79.88598,29.93446 -125.20806,0.24178 z m -340.0531,222.98341 c 5.69424,2.30042 12.39779,4.77502 17.84726,7.5205 37.22584,13.35503 73.53547,27.3801 111.26381,38.85799 l 0.29673,-503.77481 c -7.43563,-6.74406 -12.48226,-11.63757 -21.24777,-16.24082 2.0793,106.30064 0.31189,220.49429 0.31621,327.15294 l -0.006,92.45462 c -0.002,16.91085 1.21075,55.13021 -2.39334,69.20123 -10.89678,1.05468 -89.11717,-33.11539 -106.28216,-38.9015 -0.11047,8.03575 -0.32706,15.70621 0.20577,23.72985 z M 778.339,273.39215 l 0.71691,500.73906 c 37.58538,-12.19391 79.07158,-25.05062 116.15012,-39.06601 l 12.58406,-5.17413 -0.28589,-23.46377 c -15.2893,5.6555 -97.92602,38.52173 -108.06474,37.89522 -2.51463,-4.79678 -2.66191,-13.66222 -2.57962,-18.7154 0.65196,-40.55848 4.51597,-464.93862 2.57314,-466.98505 -8.66374,5.34827 -13.15803,9.15812 -21.09398,14.77008 z M 446.91713,930.34926 c 41.52085,28.66694 80.7675,31.01331 119.61129,-4.33958 0.21228,-5.29268 1.58978,-31.37861 -1.11979,-33.74433 -37.91677,15.27566 -54.2847,26.9229 -97.94118,12.0899 -8.21969,-2.79145 -18.32158,-8.68161 -25.42584,-11.0715 -0.29456,10.50062 -2.98897,30.75448 4.87552,37.06551 z M 674.92886,166.0949 c 4.41415,-2.38266 38.46039,-27.98237 42.31359,-31.48018 13.88794,-9.84511 27.95131,-19.69023 41.157,-30.70129 2.80486,-2.33912 10.82748,-3.71065 14.01137,-0.79583 -1.10677,6.44651 -5.8285,9.32262 -10.63253,12.9438 -49.82071,37.56867 -100.58793,73.6013 -150.46278,111.095 l -63.99023,47.17673 c -9.78349,7.27376 -30.53743,23.64037 -40.28846,28.92335 -13.4764,-7.07298 -26.4828,-17.31723 -39.03438,-26.44879 L 414.62961,238.00537 304.39896,157.77373 c -19.7013,-14.18713 -39.7708,-27.79371 -59.4461,-42.03406 -4.67191,-3.37925 -6.37432,-6.82385 -3.30088,-12.29549 10.30551,-2.27866 68.27227,44.17239 79.7712,52.60484 l 129.3233,93.22382 c 17.70864,12.58577 37.93192,28.49519 55.84417,39.90536 27.08277,-18.58235 59.95075,-42.37755 85.76214,-62.93618 4.28638,-1.3546 35.14653,-25.54407 40.3556,-29.80626 13.1905,-8.48809 29.57794,-20.64572 42.22047,-30.34086 z m -107.1767,299.38587 c -25.29805,19.88375 -44.50551,29.92722 -76.83418,24.46282 -24.06349,-4.06625 -30.77786,-13.20263 -49.68859,-23.28719 0.2145,6.39569 0.42453,14.15325 1.09597,20.45944 32.30701,33.24118 93.8194,37.95812 124.96546,-0.0339 0.3054,-6.93512 0.87936,-14.74832 0.46134,-21.60119 z m -2.45399,383.07904 c -7.03277,4.21623 -14.74782,9.89591 -22.00153,13.15665 -35.5299,15.9699 -69.0888,8.09138 -101.27884,-11.09086 -0.0845,5.13782 -1.02883,22.44297 1.29738,25.55858 40.90576,30.21993 82.771,24.05886 123.45798,-2.3875 0.0866,-7.74063 0.45484,-16.43191 -0.42452,-24.04676 z M 907.69913,177.73003 c -10.77333,6.79 -21.92572,15.46191 -32.01894,23.52669 -20.29476,16.21177 -42.95471,30.31183 -63.17367,46.32769 -1.75439,57.50322 -0.20364,123.01315 -0.24906,181.27592 -0.0802,99.71386 -0.77542,199.42529 -2.08582,299.12703 32.13158,-11.89394 63.84294,-26.13913 97.25676,-33.62821 1.70024,-39.30546 0.54147,-88.45849 0.54579,-128.30097 l -0.0303,-236.35052 -0.0585,-109.89277 c -0.002,-4.31056 0.25342,-39.37804 -0.18636,-42.08486 z M 503.98069,253.0101 c -7.67387,-4.53553 -19.05151,-13.22681 -26.5911,-18.63557 -17.97507,-12.87363 -35.88511,-25.86097 -53.7259,-38.96199 -61.97805,-45.21496 -125.84698,-90.38398 -188.65894,-134.270928 -1.80205,-1.257859 -3.65608,-1.562645 -5.75706,-1.468308 -2.54278,5.778871 -1.67424,74.346366 -1.7089,86.124216 -11.67653,-1.79243 -31.69838,-1.42477 -43.80376,-1.44654 -23.74942,-0.0797 -47.501,0.029 -71.24826,0.32414 71.88071,50.47859 143.84589,105.34517 215.62913,156.85907 l 79.05426,56.90573 c 39.69714,28.81209 35.30247,16.62542 34.92993,69.90274 1.54648,1.88921 3.15361,3.71794 4.81486,5.48375 35.02741,36.76078 86.21483,35.01427 118.90088,-4.42665 1.35804,-14.30565 -0.73642,-28.2533 0.83171,-43.87729 15.168,-11.45856 33.21235,-23.50492 48.90451,-34.6611 l 104.10757,-73.76096 c 39.82713,-28.56053 79.36399,-57.61691 118.60631,-87.16679 20.00669,-14.90313 40.9534,-29.44584 60.6352,-44.53039 -18.87176,-1.50944 -105.41798,1.86742 -113.4124,-6.10785 -3.77304,-10.74254 -2.19193,-67.878078 -2.26339,-82.846525 -23.38338,12.796231 -64.45592,43.267707 -86.69568,60.045525 -5.57726,2.59312 -22.01017,14.87653 -27.8885,19.07825 l -56.79933,40.87294 c -5.01413,3.6115 -36.17753,25.11836 -38.92826,27.79131 -21.23044,13.65977 -48.46484,33.56529 -68.93288,48.77322 z M 197.82657,726.06916 c 1.41435,-96.06368 -0.24475,-196.97007 -0.16243,-293.60461 l 0.39204,-111.48203 c 0.13871,-21.6157 0.74507,-53.06928 -0.43968,-74.10203 -8.35616,-8.6042 -32.23768,-24.88854 -42.80094,-32.0559 -19.12732,-12.9825 -35.45626,-25.561 -53.91648,-39.36352 2.6251,121.56178 0.29673,248.69197 0.53932,370.7956 l 0.32489,96.48214 c 0.0476,13.28003 -0.5913,36.21406 0.33789,48.50475 11.98191,3.75663 23.86204,7.90755 35.62519,12.44549 9.09909,3.51713 53.88401,22.18901 60.10022,22.38011 z m 567.79408,-443.2552 c -12.41511,7.98494 -166.19394,117.99625 -168.85802,121.72869 -2.23741,22.14789 -1.12629,65.79052 -1.13279,89.90986 l -0.002,163.31283 0.0199,172.88701 c 0.002,20.64328 -1.20212,65.80987 0.24906,84.11404 45.20296,-13.09375 99.52881,-33.64996 144.8552,-49.61502 18.89341,-6.54809 161.48954,-53.48777 165.99684,-61.12923 3.43948,-5.82725 1.17827,-50.52454 0.62379,-59.5303 -16.38093,5.49827 -131.9116,49.50861 -138.99854,45.54879 -3.95281,-12.16488 -2.63593,-75.06479 -2.67707,-92.26109 l -0.43536,-288.12565 0.50682,-88.6351 c 0.0259,-7.03913 0.5285,-32.35341 -0.14735,-38.20483 z"
     id="path1"
     style="stroke-width:2.28895" />
  <path
     fill="#23434a"
     d="m 198.55,165.9812 c 1.89517,0.22496 3.74705,0.49589 5.60109,0.99179 2.78105,0.74502 5.26537,1.87711 7.73453,3.48085 12.76598,8.2849 24.6526,18.82909 37.13919,27.73083 20.40522,14.54271 201.58522,140.62309 204.8991,146.74059 0.40503,4.08078 -1.05698,6.59648 -2.5558,10.42567 -9.20738,-4.0735 -253.38558,-178.85454 -254.9234,-181.42589 -0.156,-4.61778 -0.0411,-3.28978 2.10529,-7.94384 z"
     id="path2"
     style="stroke-width:2.28895" />
  <path
     fill="#23434a"
     d="m 819.64544,156.60779 c 4.50513,1.56265 3.46115,0.44992 6.21189,3.96222 l -0.24909,2.7939 c -4.57446,7.33665 -46.52201,35.21747 -56.03261,42.12598 l -118.58896,86.18226 c -17.8646,12.77929 -35.65986,25.67471 -53.38583,38.68863 -10.4073,7.61968 -24.11328,18.39611 -34.85198,24.5741 l -3.35284,-1.13933 c -2.59695,-2.9753 -1.86703,-1.24335 -2.2569,-5.38459 1.20426,-3.3212 2.97815,-5.79821 5.69421,-7.70917 85.96791,-60.49063 170.83986,-123.71948 256.81211,-184.094 z"
     id="path3"
     style="stroke-width:2.28895" />
  <path
     fill="#23434a"
     d="m 243.86556,161.29572 c 1.4685,-3.96467 1.28008,-4.04209 4.35137,-6.92545 5.53393,-1.33526 11.61155,4.5573 16.87691,8.34537 l 127.07724,91.17253 c 12.81582,9.1122 82.14288,56.34455 87.73314,64.02714 0.23177,4.81612 0.77758,2.74307 -1.2454,6.56019 -9.54309,3.86062 -36.94425,-21.05695 -46.22311,-27.43815 C 375.5909,257.93507 320.3402,215.98327 263.70549,176.51331 c -6.01696,-4.19929 -11.99927,-8.18571 -17.79095,-12.77932 z"
     id="path4"
     style="stroke-width:2.28895" />
  <path
     fill="#23434a"
     d="m 760.98124,151.00066 c 3.44165,-0.58296 4.13908,-1.13448 7.22771,0.54669 2.51245,3.82436 2.16375,1.84566 1.73057,5.9627 -2.41935,3.63085 -66.61967,49.24494 -74.8307,55.31892 l -97.63144,71.54278 c -18.8306,13.78801 -37.72615,28.67422 -57.09824,41.35435 -3.76005,0.37974 -3.73189,0.75227 -6.93097,-1.2748 -2.05546,-3.94289 -1.71974,-1.86743 -0.91184,-6.45859 5.06177,-6.98593 81.87428,-60.09392 93.95367,-68.81421 z"
     id="path5"
     style="stroke-width:2.28895" />
  <path
     fill="#fefefe"
     fill-opacity="0.411765"
     d="m 219.67647,162.47614 c 3.58461,-4.80402 8.25436,-14.61043 13.9226,-13.61865 2.63159,3.56312 6.96561,11.04491 10.26649,12.43823 l 2.04898,2.43827 c -1.34937,4.64925 -1.5898,5.7934 -3.78822,9.92014 -8.24784,5.6966 -15.05319,-5.45958 -22.44985,-11.17799 z"
     id="path6"
     style="stroke-width:2.28895" />
  <path
     fill="#23434a"
     d="m 717.24245,134.61472 c 13.88794,-9.84511 27.95131,-19.69023 41.157,-30.70129 2.80486,-2.33912 10.82748,-3.71065 14.01137,-0.79583 -1.10677,6.44651 -5.8285,9.32262 -10.63253,12.9438 -49.82071,37.56867 -100.58793,73.6013 -150.46278,111.095 l -63.99023,47.17673 c -9.78349,7.27376 -30.53743,23.64037 -40.28846,28.92335 -13.4764,-7.07298 -26.4828,-17.31723 -39.03438,-26.44879 L 414.62961,238.00537 304.39896,157.77373 c -19.7013,-14.18713 -39.7708,-27.79371 -59.4461,-42.03406 -4.67191,-3.37925 -6.37432,-6.82385 -3.30088,-12.29549 10.30551,-2.27866 68.27227,44.17239 79.7712,52.60484 l 129.3233,93.22382 c 17.70864,12.58577 37.93192,28.49519 55.84417,39.90536 27.08277,-18.58235 59.95075,-42.37755 85.76214,-62.93618 4.28638,-1.3546 35.14653,-25.54407 40.3556,-29.80626 13.1905,-8.48809 29.57794,-20.64572 42.22047,-30.34086 4.41415,-2.38266 38.46039,-27.98237 42.31359,-31.48018 z"
     id="path7"
     style="stroke-width:2.28895" />
  <path
     fill="#fefefe"
     fill-opacity="0.780392"
     d="m 908.81242,841.91981 c 20.12365,-7.81564 18.04435,-16.05699 25.73991,-21.16582 l 0.71259,3.8292 c 2.42366,-0.32654 1.59411,-0.24913 3.88133,-2.06579 0.64545,0.57813 2.34787,2.21336 2.99549,2.56169 -3.52399,4.28152 -3.66043,4.81853 -5.95848,10.16441 -3.19256,0.52007 -1.81071,-0.22743 -4.14342,2.6052 l 0.48733,1.94967 c 2.32621,0.59747 7.90998,1.35221 8.9258,2.06338 -5.52095,4.2138 -13.0324,10.89493 -9.70553,19.49428 -1.83888,0.60233 -2.97599,0.84421 -4.83435,1.16594 -12.69452,2.18915 -24.09164,9.94188 -36.68653,13.43001 -33.67802,9.32744 -67.0615,20.50782 -99.45946,34.44339 -8.31068,3.57276 -15.5124,9.91768 -24.35373,12.02457 -0.68877,0.31447 -1.37536,0.62651 -2.06412,0.93855 l 0.38336,1.96663 c -4.64158,2.0706 -8.26734,3.26557 -13.03023,4.80884 l 1.30606,-4.36861 c 9.57991,-10.29021 34.38847,-11.49 36.77315,-21.89146 -3.46331,-5.38701 -4.386,-0.85632 -8.26302,-5.55634 l 1.04614,-2.7721 c 6.20539,-4.47506 6.75988,-4.44846 7.09559,-12.70916 4.75205,-2.13351 10.11273,-3.60422 15.01639,-5.33621 27.42934,-9.69029 55.16189,-18.49284 82.46126,-28.61372 5.52529,8.36714 17.16499,12.42129 22.90472,2.80598 0.117,-3.64292 -0.56098,-6.23363 -1.23025,-9.77253 z"
     id="path13"
     style="stroke-width:2.28895" />
  <path
     fill="#fefefe"
     fill-opacity="0.541176"
     d="m 789.6603,882.83629 c -0.33571,8.2607 -0.8902,8.2341 -7.09559,12.70916 l -1.04614,2.7721 c 3.87702,4.70002 4.79971,0.16928 8.26302,5.55634 -2.38468,10.40146 -27.19324,11.60125 -36.77315,21.89146 l -1.30606,4.36861 -7.89263,2.53507 c 5.43863,-9.40728 13.13852,-9.03478 13.66266,-17.85667 -1.24107,-2.98015 -1.95149,-3.99368 -2.05546,-7.25685 1.68292,-4.04205 3.1341,-4.43151 6.65373,-6.60373 l 1.22593,-0.74019 c 1.88435,-4.34442 1.30821,-2.94142 0.54798,-8.60661 8.55108,-3.11802 17.15851,-6.04012 25.81571,-8.76869 z"
     id="path14"
     style="stroke-width:2.28895" />
  <path
     fill="#fefefe"
     fill-opacity="0.34902"
     d="m 763.84459,891.60498 c 0.76023,5.66519 1.33637,4.26219 -0.54798,8.60661 l -1.22593,0.74019 c -3.51963,2.17222 -4.97081,2.56168 -6.65373,6.60373 0.10387,3.26317 0.81439,4.2767 2.05546,7.25685 -0.52414,8.82189 -8.22403,8.44939 -13.66266,17.85667 l -6.26605,1.92789 c 1.87352,-2.9511 9.32001,-14.53302 9.93081,-16.21178 0.27073,-4.74113 -4.7066,-13.08891 -6.87902,-17.98003 7.00463,-3.30188 15.88062,-6.18284 23.2491,-8.80013 z"
     id="path15"
     style="stroke-width:2.28895" />
  <path
     fill="#fefefe"
     fill-opacity="0.188235"
     d="m 735.83911,902.26045 4.75638,-1.85534 c 2.17242,4.89112 7.14975,13.2389 6.87902,17.98003 -0.6108,1.67876 -8.05729,13.26068 -9.93081,16.21178 l -4.06111,1.01597 c -1.55297,-11.32067 -1.33205,-11.21909 -7.47897,-20.16435 4.69141,-1.48281 8.89114,-3.13496 11.53576,-7.99219 -0.39638,-3.87758 0.2404,-2.24478 -1.70027,-5.1959 z"
     id="path16"
     style="stroke-width:2.28895" />
  <path
     fill="#fefefe"
     fill-opacity="0.0627451"
     d="m 941.45297,841.86175 c 3.68857,2.03675 7.36198,3.38652 9.31565,7.27619 -0.70175,7.52775 -12.9241,9.98783 -19.02118,12.21809 -3.32687,-8.59935 4.18458,-15.28048 9.70553,-19.49428 z"
     id="path17"
     style="stroke-width:2.28895" />
  <path
     fill="#fefefe"
     fill-opacity="0.443137"
     d="m 887.13795,848.88636 c 7.33168,-2.62456 14.23882,-4.7363 21.67447,-6.96655 0.66927,3.5389 1.3472,6.12961 1.23025,9.77253 -5.73973,9.61531 -17.37943,5.56116 -22.90472,-2.80598 z"
     id="path18"
     style="stroke-width:2.28895" />
  <path
     fill="#fefefe"
     fill-opacity="0.0431373"
     d="m 725.54878,906.11381 c 2.69876,-1.37153 7.30135,-2.80838 10.29033,-3.85336 1.94067,2.95112 1.30389,1.31832 1.70027,5.1959 -2.64462,4.85723 -6.84435,6.50938 -11.53576,7.99219 -1.58329,-4.41215 0.0717,-3.86063 -0.45484,-9.33473 z"
     id="path19"
     style="stroke-width:2.28895" />
</svg>
